<svg version="1.1" viewBox="0.0 0.0 960.0 540.0" fill="none" stroke="none" stroke-linecap="square" stroke-miterlimit="10" xmlns:xlink="http://www.w3.org/1999/xlink" xmlns="http://www.w3.org/2000/svg"><clipPath id="p.0"><path d="m0 0l960.0 0l0 540.0l-960.0 0l0 -540.0z" clip-rule="nonzero"/></clipPath><g clip-path="url(#p.0)"><path fill="#ffffff" d="m0 0l960.0 0l0 540.0l-960.0 0z" fill-rule="evenodd"/><path fill="#000000" fill-opacity="0.0" d="m203.55643 150.2479l0 0c0 -32.250603 26.144272 -58.394875 58.394867 -58.394875l270.61182 0c15.487305 0 30.340271 6.152298 41.291443 17.103462c10.951172 10.951157 17.103455 25.804123 17.103455 41.291412l0 233.57245c0 32.25061 -26.144287 58.394867 -58.394897 58.394867l-270.61182 0c-32.250595 0 -58.394867 -26.144257 -58.394867 -58.394867z" fill-rule="evenodd"/><path stroke="#595959" stroke-width="1.0" stroke-linejoin="round" stroke-linecap="butt" stroke-dasharray="1.0,3.0" d="m203.55643 150.2479l0 0c0 -32.250603 26.144272 -58.394875 58.394867 -58.394875l270.61182 0c15.487305 0 30.340271 6.152298 41.291443 17.103462c10.951172 10.951157 17.103455 25.804123 17.103455 41.291412l0 233.57245c0 32.25061 -26.144287 58.394867 -58.394897 58.394867l-270.61182 0c-32.250595 0 -58.394867 -26.144257 -58.394867 -58.394867z" fill-rule="evenodd"/><path fill="#eeeeee" d="m35.262466 138.51443l25.92126 0l0 257.03937l-25.92126 0z" fill-rule="evenodd"/><path stroke="#595959" stroke-width="1.0" stroke-linejoin="round" stroke-linecap="butt" d="m35.262466 138.51443l25.92126 0l0 257.03937l-25.92126 0z" fill-rule="evenodd"/><path fill="#eeeeee" d="m237.67192 248.0212l0 0c0 -5.2504425 4.256317 -9.50676 9.506744 -9.50676l41.742416 0c2.5213318 0 4.9394226 1.0016022 6.72229 2.7844696c1.7828369 1.7828522 2.7844543 4.200943 2.7844543 6.72229l0 38.025864c0 5.2504272 -4.256317 9.506744 -9.506744 9.506744l-41.742416 0c-5.2504272 0 -9.506744 -4.256317 -9.506744 -9.506744z" fill-rule="evenodd"/><path stroke="#595959" stroke-width="1.0" stroke-linejoin="round" stroke-linecap="butt" d="m237.67192 248.0212l0 0c0 -5.2504425 4.256317 -9.50676 9.506744 -9.50676l41.742416 0c2.5213318 0 4.9394226 1.0016022 6.72229 2.7844696c1.7828369 1.7828522 2.7844543 4.200943 2.7844543 6.72229l0 38.025864c0 5.2504272 -4.256317 9.506744 -9.506744 9.506744l-41.742416 0c-5.2504272 0 -9.506744 -4.256317 -9.506744 -9.506744z" fill-rule="evenodd"/><path fill="#000000" d="m250.4251 263.8341l0 -9.54686l3.59375 0q1.09375 0 1.75 0.296875q0.65626526 0.28125 1.0312653 0.890625q0.375 0.60935974 0.375 1.2656097q0 0.609375 -0.34375 1.15625q-0.328125 0.53125 -0.98439026 0.859375q0.85939026 0.25 1.3281403 0.875q0.46875 0.609375 0.46875 1.4375q0 0.671875 -0.296875 1.25q-0.28125 0.578125 -0.703125 0.890625q-0.40625 0.3125 -1.0312653 0.46875q-0.625 0.15625 -1.546875 0.15625l-3.640625 0zm1.265625 -5.53125l2.0625 0q0.84375 0 1.203125 -0.109375q0.484375 -0.140625 0.71875 -0.46875q0.25 -0.34375 0.25 -0.84375q0 -0.46875 -0.234375 -0.828125q-0.21875 -0.35935974 -0.640625 -0.49998474q-0.421875 -0.140625 -1.453125 -0.140625l-1.90625 0l0 2.8906097zm0 4.40625l2.375 0q0.609375 0 0.859375 -0.046875q0.4375 -0.078125 0.734375 -0.25q0.296875 -0.1875 0.48439026 -0.53125q0.1875 -0.359375 0.1875 -0.8125q0 -0.53125 -0.28125 -0.921875q-0.26564026 -0.40625 -0.75001526 -0.5625q-0.484375 -0.15625 -1.40625 -0.15625l-2.203125 0l0 3.28125zm12.046005 0.265625q-0.65625 0.5625 -1.265625 0.796875q-0.59375 0.21875 -1.28125 0.21875q-1.140625 0 -1.75 -0.546875q-0.609375 -0.5625 -0.609375 -1.4375q0 -0.5 0.21875 -0.921875q0.234375 -0.421875 0.609375 -0.671875q0.375 -0.25 0.84375 -0.390625q0.34375 -0.078125 1.046875 -0.171875q1.421875 -0.171875 2.09375 -0.40625q0 -0.234375 0 -0.296875q0 -0.71875 -0.328125 -1.015625q-0.453125 -0.390625 -1.34375 -0.390625q-0.8125 0 -1.21875 0.296875q-0.390625 0.28125 -0.578125 1.015625l-1.140625 -0.15625q0.15625 -0.734375 0.515625 -1.1875q0.359375 -0.453125 1.03125 -0.6875q0.671875 -0.25 1.5625 -0.25q0.890625 0 1.4375 0.203125q0.5625 0.203125 0.8125 0.53125q0.265625 0.3125 0.375 0.796875q0.046875 0.296875 0.046875 1.078125l0 1.5625q0 1.625 0.078125 2.0625q0.078125 0.4375 0.296875 0.828125l-1.21875 0q-0.1875 -0.359375 -0.234375 -0.859375zm-0.09375 -2.609375q-0.640625 0.265625 -1.921875 0.4375q-0.71875 0.109375 -1.015625 0.25q-0.296875 0.125 -0.46875 0.375q-0.15625 0.25 -0.15625 0.546875q0 0.46875 0.34375 0.78125q0.359375 0.3125 1.046875 0.3125q0.671875 0 1.203125 -0.296875q0.53125 -0.296875 0.78125 -0.8125q0.1875 -0.390625 0.1875 -1.171875l0 -0.421875zm5.5531006 2.421875l0.171875 1.03125q-0.5 0.109375 -0.890625 0.109375q-0.640625 0 -1.0 -0.203125q-0.34375 -0.203125 -0.484375 -0.53125q-0.140625 -0.328125 -0.140625 -1.390625l0 -3.96875l-0.859375 0l0 -0.90625l0.859375 0l0 -1.7187347l1.171875 -0.703125l0 2.4218597l1.171875 0l0 0.90625l-1.171875 0l0 4.046875q0 0.5 0.046875 0.640625q0.0625 0.140625 0.203125 0.234375q0.140625 0.078125 0.40625 0.078125q0.203125 0 0.515625 -0.046875zm5.656128 -1.484375l1.15625 0.15625q-0.1875 1.1875 -0.96875 1.859375q-0.78125 0.671875 -1.921875 0.671875q-1.40625 0 -2.28125 -0.921875q-0.859375 -0.9375 -0.859375 -2.65625q0 -1.125 0.375 -1.96875q0.375 -0.84375 1.125 -1.25q0.765625 -0.421875 1.65625 -0.421875q1.125 0 1.84375 0.578125q0.71875 0.5625 0.921875 1.609375l-1.140625 0.171875q-0.171875 -0.703125 -0.59375 -1.046875q-0.40625 -0.359375 -0.984375 -0.359375q-0.890625 0 -1.453125 0.640625q-0.546875 0.640625 -0.546875 2.0q0 1.40625 0.53125 2.03125q0.546875 0.625 1.40625 0.625q0.6875 0 1.140625 -0.421875q0.46875 -0.421875 0.59375 -1.296875zm2.1484375 2.53125l0 -9.54686l1.171875 0l0 3.4218597q0.828125 -0.9375 2.078125 -0.9375q0.765625 0 1.328125 0.296875q0.5625 0.296875 0.8125 0.84375q0.25 0.53125 0.25 1.546875l0 4.375l-1.171875 0l0 -4.375q0 -0.890625 -0.390625 -1.28125q-0.375 -0.40625 -1.078125 -0.40625q-0.515625 0 -0.984375 0.28125q-0.453125 0.265625 -0.65625 0.734375q-0.1875 0.453125 -0.1875 1.265625l0 3.78125l-1.171875 0z" fill-rule="nonzero"/><path fill="#000000" d="m250.47197 279.8341l0 -9.546875l1.296875 0l5.0156403 7.5l0 -7.5l1.203125 0l0 9.546875l-1.296875 0l-5.0156403 -7.5l0 7.5l-1.203125 0zm9.047043 -3.453125q0 -1.921875 1.078125 -2.84375q0.890625 -0.765625 2.171875 -0.765625q1.421875 0 2.328125 0.9375q0.90625 0.921875 0.90625 2.578125q0 1.328125 -0.40625 2.09375q-0.390625 0.765625 -1.15625 1.1875q-0.765625 0.421875 -1.671875 0.421875q-1.453125 0 -2.359375 -0.921875q-0.890625 -0.9375 -0.890625 -2.6875zm1.203125 0q0 1.328125 0.578125 1.984375q0.59375 0.65625 1.46875 0.65625q0.875 0 1.453125 -0.65625q0.578125 -0.671875 0.578125 -2.03125q0 -1.28125 -0.59375 -1.9375q-0.578125 -0.65625 -1.4375 -0.65625q-0.875 0 -1.46875 0.65625q-0.578125 0.65625 -0.578125 1.984375zm6.6312256 3.453125l0 -6.90625l1.0625 0l0 1.046875q0.40625 -0.734375 0.734375 -0.96875q0.34375 -0.234375 0.765625 -0.234375q0.59375 0 1.203125 0.375l-0.40625 1.078125q-0.4375 -0.25 -0.859375 -0.25q-0.390625 0 -0.703125 0.234375q-0.296875 0.234375 -0.421875 0.640625q-0.203125 0.625 -0.203125 1.359375l0 3.625l-1.171875 0zm4.4539795 0l0 -6.90625l1.046875 0l0 0.96875q0.328125 -0.515625 0.859375 -0.8125q0.546875 -0.3125 1.234375 -0.3125q0.78125 0 1.265625 0.3125q0.484375 0.3125 0.6875 0.890625q0.828125 -1.203125 2.140625 -1.203125q1.03125 0 1.578125 0.578125q0.5625 0.5625 0.5625 1.734375l0 4.75l-1.171875 0l0 -4.359375q0 -0.703125 -0.125 -1.0q-0.109375 -0.3125 -0.40625 -0.5q-0.296875 -0.1875 -0.703125 -0.1875q-0.71875 0 -1.203125 0.484375q-0.484375 0.484375 -0.484375 1.546875l0 4.015625l-1.171875 0l0 -4.484375q0 -0.78125 -0.296875 -1.171875q-0.28125 -0.390625 -0.921875 -0.390625q-0.5 0 -0.921875 0.265625q-0.421875 0.25 -0.609375 0.75q-0.1875 0.5 -0.1875 1.453125l0 3.578125l-1.171875 0z" fill-rule="nonzero"/><path fill="#eeeeee" d="m304.1916 248.0212l0 0c0 -5.2504425 4.256317 -9.50676 9.506775 -9.50676l41.7424 0c2.5213318 0 4.9394226 1.0016022 6.72229 2.7844696c1.7828369 1.7828522 2.7844543 4.200943 2.7844543 6.72229l0 38.025864c0 5.2504272 -4.256317 9.506744 -9.506744 9.506744l-41.7424 0c-5.250458 0 -9.506775 -4.256317 -9.506775 -9.506744z" fill-rule="evenodd"/><path stroke="#595959" stroke-width="1.0" stroke-linejoin="round" stroke-linecap="butt" d="m304.1916 248.0212l0 0c0 -5.2504425 4.256317 -9.50676 9.506775 -9.50676l41.7424 0c2.5213318 0 4.9394226 1.0016022 6.72229 2.7844696c1.7828369 1.7828522 2.7844543 4.200943 2.7844543 6.72229l0 38.025864c0 5.2504272 -4.256317 9.506744 -9.506744 9.506744l-41.7424 0c-5.250458 0 -9.506775 -4.256317 -9.506775 -9.506744z" fill-rule="evenodd"/><path fill="#000000" d="m317.02292 271.8341l0 -9.546875l4.234375 0q1.265625 0 1.921875 0.265625q0.671875 0.25 1.0625 0.90625q0.40625 0.65625 0.40625 1.4375q0 1.015625 -0.65625 1.71875q-0.65625 0.6875 -2.03125 0.875q0.5 0.25 0.765625 0.484375q0.546875 0.5 1.046875 1.265625l1.65625 2.59375l-1.578125 0l-1.265625 -1.984375q-0.5625 -0.859375 -0.921875 -1.3125q-0.34375 -0.453125 -0.640625 -0.640625q-0.28125 -0.1875 -0.5625 -0.25q-0.21875 -0.046875 -0.703125 -0.046875l-1.46875 0l0 4.234375l-1.265625 0zm1.265625 -5.328125l2.71875 0q0.859375 0 1.34375 -0.171875q0.484375 -0.1875 0.734375 -0.578125q0.265625 -0.390625 0.265625 -0.859375q0 -0.671875 -0.5 -1.109375q-0.484375 -0.4375 -1.546875 -0.4375l-3.015625 0l0 3.15625zm12.922028 3.109375l1.203125 0.140625q-0.28125 1.0625 -1.0625 1.65625q-0.765625 0.578125 -1.96875 0.578125q-1.515625 0 -2.40625 -0.9375q-0.890625 -0.9375 -0.890625 -2.609375q0 -1.75 0.890625 -2.703125q0.90625 -0.96875 2.34375 -0.96875q1.390625 0 2.265625 0.9375q0.875 0.9375 0.875 2.65625q0 0.109375 0 0.3125l-5.15625 0q0.0625 1.140625 0.640625 1.75q0.578125 0.59375 1.4375 0.59375q0.65625 0 1.109375 -0.328125q0.453125 -0.34375 0.71875 -1.078125zm-3.84375 -1.90625l3.859375 0q-0.078125 -0.859375 -0.4375 -1.296875q-0.5625 -0.6875 -1.453125 -0.6875q-0.8125 0 -1.359375 0.546875q-0.546875 0.53125 -0.609375 1.4375zm6.6156006 4.125l0 -9.546875l1.265625 0l0 8.421875l4.703125 0l0 1.125l-5.96875 0zm11.849976 0l0 -1.015625q-0.8125 1.171875 -2.1875 1.171875q-0.609375 0 -1.140625 -0.234375q-0.53125 -0.234375 -0.796875 -0.578125q-0.25 -0.359375 -0.359375 -0.875q-0.0625 -0.34375 -0.0625 -1.09375l0 -4.28125l1.171875 0l0 3.828125q0 0.921875 0.0625 1.234375q0.109375 0.46875 0.46875 0.734375q0.359375 0.25 0.890625 0.25q0.515625 0 0.984375 -0.265625q0.46875 -0.265625 0.65625 -0.734375q0.1875 -0.46875 0.1875 -1.34375l0 -3.703125l1.171875 0l0 6.90625l-1.046875 0z" fill-rule="nonzero"/><path fill="#eeeeee" d="m370.71127 248.0212l0 0c0 -5.2504425 4.256317 -9.50676 9.506775 -9.50676l61.26996 0c2.5213318 0 4.9394226 1.0016022 6.72229 2.7844696c1.7828674 1.7828522 2.7844543 4.200943 2.7844543 6.72229l0 38.025864c0 5.2504272 -4.256317 9.506744 -9.506744 9.506744l-61.26996 0c-5.250458 0 -9.506775 -4.256317 -9.506775 -9.506744z" fill-rule="evenodd"/><path stroke="#595959" stroke-width="1.0" stroke-linejoin="round" stroke-linecap="butt" d="m370.71127 248.0212l0 0c0 -5.2504425 4.256317 -9.50676 9.506775 -9.50676l61.26996 0c2.5213318 0 4.9394226 1.0016022 6.72229 2.7844696c1.7828674 1.7828522 2.7844543 4.200943 2.7844543 6.72229l0 38.025864c0 5.2504272 -4.256317 9.506744 -9.506744 9.506744l-61.26996 0c-5.250458 0 -9.506775 -4.256317 -9.506775 -9.506744z" fill-rule="evenodd"/><path fill="#000000" d="m387.46448 263.8341l-1.171875 0l0 -7.46875q-0.421875 0.40625 -1.109375 0.8125q-0.6875 0.40625 -1.234375 0.609375l0 -1.140625q0.984375 -0.453125 1.71875 -1.1093597q0.734375 -0.671875 1.03125 -1.28125l0.765625 0l0 9.57811zm3.4749756 0l0 -9.54686l3.28125 0q1.109375 0 1.703125 0.140625q0.8125 0.1875 1.390625 0.6875q0.765625 0.640625 1.140625 1.6406097q0.375 0.984375 0.375 2.25q0 1.09375 -0.265625 1.9375q-0.25 0.828125 -0.65625 1.390625q-0.390625 0.546875 -0.859375 0.859375q-0.46875 0.3125 -1.140625 0.484375q-0.65625 0.15625 -1.53125 0.15625l-3.4375 0zm1.265625 -1.125l2.03125 0q0.9375 0 1.46875 -0.171875q0.546875 -0.1875 0.875 -0.5q0.4375 -0.453125 0.6875 -1.203125q0.25 -0.765625 0.25 -1.84375q0 -1.5 -0.5 -2.296875q-0.484375 -0.81248474 -1.1875 -1.0781097q-0.5 -0.203125 -1.625 -0.203125l-2.0 0l0 7.2968597zm18.859375 -2.21875l1.265625 0.3125q-0.390625 1.5625 -1.421875 2.375q-1.03125 0.8125 -2.53125 0.8125q-1.53125 0 -2.5 -0.625q-0.96875 -0.625 -1.484375 -1.8125q-0.5 -1.1875 -0.5 -2.5625q0 -1.484375 0.5625 -2.59375q0.578125 -1.1093597 1.625 -1.6874847q1.0625 -0.578125 2.328125 -0.578125q1.421875 0 2.390625 0.734375q0.984375 0.71875 1.375 2.0468597l-1.25 0.296875q-0.328125 -1.046875 -0.96875 -1.5156097q-0.625 -0.484375 -1.578125 -0.484375q-1.09375 0 -1.84375 0.53125q-0.734375 0.53123474 -1.03125 1.4218597q-0.296875 0.875 -0.296875 1.828125q0 1.21875 0.34375 2.125q0.359375 0.90625 1.109375 1.359375q0.75 0.4375 1.625 0.4375q1.0625 0 1.796875 -0.609375q0.734375 -0.609375 0.984375 -1.8125zm2.2345276 -0.109375q0 -1.921875 1.078125 -2.84375q0.890625 -0.765625 2.171875 -0.765625q1.421875 0 2.328125 0.9375q0.90625 0.921875 0.90625 2.578125q0 1.328125 -0.40625 2.09375q-0.390625 0.765625 -1.15625 1.1875q-0.765625 0.421875 -1.671875 0.421875q-1.453125 0 -2.359375 -0.921875q-0.890625 -0.9375 -0.890625 -2.6875zm1.203125 0q0 1.328125 0.578125 1.984375q0.59375 0.65625 1.46875 0.65625q0.875 0 1.453125 -0.65625q0.578125 -0.671875 0.578125 -2.03125q0 -1.28125 -0.59375 -1.9375q-0.578125 -0.65625 -1.4375 -0.65625q-0.875 0 -1.46875 0.65625q-0.578125 0.65625 -0.578125 1.984375zm6.6468506 3.453125l0 -6.90625l1.0625 0l0 0.984375q0.75 -1.140625 2.1875 -1.140625q0.625 0 1.15625 0.21875q0.53125 0.21875 0.78125 0.59375q0.265625 0.359375 0.375 0.859375q0.0625 0.328125 0.0625 1.140625l0 4.25l-1.171875 0l0 -4.203125q0 -0.71875 -0.140625 -1.0625q-0.140625 -0.359375 -0.484375 -0.5625q-0.34375 -0.21875 -0.8125 -0.21875q-0.75 0 -1.296875 0.46875q-0.546875 0.46875 -0.546875 1.796875l0 3.78125l-1.171875 0zm9.334351 0l-2.625 -6.90625l1.234375 0l1.484375 4.140625q0.234375 0.65625 0.4375 1.390625q0.15625 -0.546875 0.4375 -1.3125l1.53125 -4.21875l1.21875 0l-2.625 6.90625l-1.09375 0z" fill-rule="nonzero"/><path fill="#000000" d="m383.46448 279.8341l0 -9.546875l1.265625 0l0 4.734375l4.734375 -4.734375l1.71875 0l-4.0 3.875l4.171875 5.671875l-1.65625 0l-3.40625 -4.828125l-1.5625 1.515625l0 3.3125l-1.265625 0z" fill-rule="nonzero"/><path fill="#000000" d="m391.9636 284.8341l0 -4.609375l0.703125 0l0 0.65625q0.515625 -0.75 1.46875 -0.75q0.421875 0 0.765625 0.15625q0.34375 0.140625 0.515625 0.390625q0.1875 0.234375 0.25 0.5625q0.046875 0.21875 0.046875 0.765625l0 2.828125l-0.78125 0l0 -2.796875q0 -0.484375 -0.09375 -0.71875q-0.09375 -0.234375 -0.328125 -0.375q-0.21875 -0.140625 -0.53125 -0.140625q-0.5 0 -0.875 0.328125q-0.359375 0.3125 -0.359375 1.1875l0 2.515625l-0.78125 0z" fill-rule="nonzero"/><path fill="#000000" d="m401.18048 279.8341l0 -6.0l-1.03125 0l0 -0.90625l1.03125 0l0 -0.734375q0 -0.703125 0.125 -1.046875q0.171875 -0.453125 0.59375 -0.734375q0.421875 -0.28125 1.203125 -0.28125q0.484375 0 1.09375 0.109375l-0.1875 1.03125q-0.359375 -0.0625 -0.6875 -0.0625q-0.53125 0 -0.75 0.234375q-0.21875 0.21875 -0.21875 0.84375l0 0.640625l1.34375 0l0 0.90625l-1.34375 0l0 6.0l-1.171875 0zm3.437378 -8.1875l0 -1.359375l1.171875 0l0 1.359375l-1.171875 0zm0 8.1875l0 -6.90625l1.171875 0l0 6.90625l-1.171875 0zm2.92984 0l0 -9.546875l1.171875 0l0 9.546875l-1.171875 0zm5.539215 -1.046875l0.171875 1.03125q-0.5 0.109375 -0.890625 0.109375q-0.640625 0 -1.0 -0.203125q-0.34375 -0.203125 -0.484375 -0.53125q-0.140625 -0.328125 -0.140625 -1.390625l0 -3.96875l-0.859375 0l0 -0.90625l0.859375 0l0 -1.71875l1.171875 -0.703125l0 2.421875l1.171875 0l0 0.90625l-1.171875 0l0 4.046875q0 0.5 0.046875 0.640625q0.0625 0.140625 0.203125 0.234375q0.140625 0.078125 0.40625 0.078125q0.203125 0 0.515625 -0.046875zm5.8748474 -1.171875l1.203125 0.140625q-0.28125 1.0625 -1.0625 1.65625q-0.765625 0.578125 -1.96875 0.578125q-1.515625 0 -2.40625 -0.9375q-0.890625 -0.9375 -0.890625 -2.609375q0 -1.75 0.890625 -2.703125q0.90625 -0.96875 2.34375 -0.96875q1.390625 0 2.265625 0.9375q0.875 0.9375 0.875 2.65625q0 0.109375 0 0.3125l-5.15625 0q0.0625 1.140625 0.640625 1.75q0.578125 0.59375 1.4375 0.59375q0.65625 0 1.109375 -0.328125q0.453125 -0.34375 0.71875 -1.078125zm-3.84375 -1.90625l3.859375 0q-0.078125 -0.859375 -0.4375 -1.296875q-0.5625 -0.6875 -1.453125 -0.6875q-0.8125 0 -1.359375 0.546875q-0.546875 0.53125 -0.609375 1.4375zm6.5062256 4.125l0 -6.90625l1.0625 0l0 1.046875q0.40625 -0.734375 0.734375 -0.96875q0.34375 -0.234375 0.765625 -0.234375q0.59375 0 1.203125 0.375l-0.40625 1.078125q-0.4375 -0.25 -0.859375 -0.25q-0.390625 0 -0.703125 0.234375q-0.296875 0.234375 -0.421875 0.640625q-0.203125 0.625 -0.203125 1.359375l0 3.625l-1.171875 0zm3.98526 -2.0625l1.15625 -0.1875q0.109375 0.703125 0.546875 1.078125q0.453125 0.359375 1.25 0.359375q0.8125 0 1.203125 -0.328125q0.390625 -0.328125 0.390625 -0.765625q0 -0.390625 -0.359375 -0.625q-0.234375 -0.15625 -1.1875 -0.390625q-1.296875 -0.328125 -1.796875 -0.5625q-0.484375 -0.25 -0.75 -0.65625q-0.25 -0.421875 -0.25 -0.9375q0 -0.453125 0.203125 -0.84375q0.21875 -0.40625 0.578125 -0.671875q0.28125 -0.1875 0.75 -0.328125q0.46875 -0.140625 1.015625 -0.140625q0.8125 0 1.421875 0.234375q0.609375 0.234375 0.90625 0.640625q0.296875 0.390625 0.40625 1.0625l-1.140625 0.15625q-0.078125 -0.53125 -0.453125 -0.828125q-0.375 -0.3125 -1.0625 -0.3125q-0.8125 0 -1.15625 0.265625q-0.34375 0.265625 -0.34375 0.625q0 0.234375 0.140625 0.421875q0.15625 0.1875 0.453125 0.3125q0.171875 0.0625 1.03125 0.296875q1.25 0.328125 1.734375 0.546875q0.5 0.203125 0.78125 0.609375q0.28125 0.40625 0.28125 1.0q0 0.59375 -0.34375 1.109375q-0.34375 0.515625 -1.0 0.796875q-0.640625 0.28125 -1.453125 0.28125q-1.34375 0 -2.046875 -0.5625q-0.703125 -0.5625 -0.90625 -1.65625z" fill-rule="nonzero"/><path fill="#eeeeee" d="m517.51447 138.51443l49.19684 0l0 257.03937l-49.19684 0z" fill-rule="evenodd"/><path stroke="#595959" stroke-width="1.0" stroke-linejoin="round" stroke-linecap="butt" d="m517.51447 138.51443l49.19684 0l0 257.03937l-49.19684 0z" fill-rule="evenodd"/><path fill="#000000" fill-opacity="0.0" d="m618.1496 214.05774l68.8819 0l0 105.95276l-68.8819 0z" fill-rule="evenodd"/><path fill="#000000" d="m636.94604 269.13773l0 -4.8125l4.8125 0l0 4.8125l-4.8125 0zm13.3359375 0l0 -4.8125l4.8125 0l0 4.8125l-4.8125 0zm13.3359375 0l0 -4.8125l4.8125 0l0 4.8125l-4.8125 0z" fill-rule="nonzero"/><path fill="#000000" fill-opacity="0.0" d="m4.8792653 393.03674l126.67716 0l0 57.039368l-126.67716 0z" fill-rule="evenodd"/><path fill="#000000" d="m18.23864 423.87863q-1.359375 -1.703125 -2.296875 -4.0q-0.9375 -2.296875 -0.9375 -4.765625q0 -2.15625 0.703125 -4.140625q0.828125 -2.3125 2.53125 -4.59375l1.171875 0q-1.09375 1.890625 -1.453125 2.703125q-0.546875 1.25 -0.875 2.625q-0.390625 1.703125 -0.390625 3.421875q0 4.375 2.71875 8.75l-1.171875 0zm3.212677 -3.921875l0 -13.359375l1.78125 0l0 11.78125l6.5625 0l0 1.578125l-8.34375 0zm13.688217 -2.15625l0 -3.671875l-3.640625 0l0 -1.515625l3.640625 0l0 -3.640625l1.546875 0l0 3.640625l3.640625 0l0 1.515625l-3.640625 0l0 3.671875l-1.546875 0zm15.6137085 0.578125l0 1.578125l-8.828125 0q-0.015625 -0.59375 0.1875 -1.140625q0.34375 -0.90625 1.078125 -1.78125q0.75 -0.875 2.15625 -2.015625q2.171875 -1.78125 2.9375 -2.828125q0.765625 -1.046875 0.765625 -1.96875q0 -0.984375 -0.703125 -1.640625q-0.6875 -0.671875 -1.8125 -0.671875q-1.1875 0 -1.90625 0.71875q-0.703125 0.703125 -0.703125 1.953125l-1.6875 -0.171875q0.171875 -1.890625 1.296875 -2.875q1.140625 -0.984375 3.03125 -0.984375q1.921875 0 3.046875 1.0625q1.125 1.0625 1.125 2.640625q0 0.796875 -0.328125 1.578125q-0.328125 0.78125 -1.09375 1.640625q-0.75 0.84375 -2.53125 2.34375q-1.46875 1.234375 -1.890625 1.6875q-0.421875 0.4375 -0.6875 0.875l6.546875 0zm4.000717 1.578125l-2.96875 -9.671875l1.703125 0l1.53125 5.578125l0.578125 2.078125q0.046875 -0.15625 0.5 -2.0l1.546875 -5.65625l1.6875 0l1.4375 5.609375l0.484375 1.84375l0.5625 -1.859375l1.65625 -5.59375l1.59375 0l-3.03125 9.671875l-1.703125 0l-1.53125 -5.796875l-0.375 -1.640625l-1.953125 7.4375l-1.71875 0zm12.769821 3.921875l-1.1875 0q2.734375 -4.375 2.734375 -8.75q0 -1.71875 -0.390625 -3.390625q-0.3125 -1.375 -0.875 -2.625q-0.359375 -0.828125 -1.46875 -2.734375l1.1875 0q1.703125 2.28125 2.53125 4.59375q0.6875 1.984375 0.6875 4.140625q0 2.46875 -0.9375 4.765625q-0.9375 2.296875 -2.28125 4.0zm9.224106 -3.921875l3.53125 -5.03125l-3.265625 -4.640625l2.046875 0l1.484375 2.265625q0.421875 0.640625 0.671875 1.078125q0.40625 -0.59375 0.734375 -1.0625l1.640625 -2.28125l1.953125 0l-3.34375 4.546875l3.59375 5.125l-2.015625 0l-1.984375 -3.0l-0.515625 -0.8125l-2.546875 3.8125l-1.984375 0zm20.402054 0l0 -3.203125l-5.796875 0l0 -1.5l6.09375 -8.65625l1.34375 0l0 8.65625l1.796875 0l0 1.5l-1.796875 0l0 3.203125l-1.640625 0zm0 -4.703125l0 -6.015625l-4.1875 6.015625l4.1875 0z" fill-rule="nonzero"/><path fill="#000000" fill-opacity="0.0" d="m391.85303 393.03674l200.0 0l0 57.039368l-200.0 0z" fill-rule="evenodd"/><path fill="#000000" d="m405.2124 423.87863q-1.359375 -1.703125 -2.296875 -4.0q-0.9375 -2.296875 -0.9375 -4.765625q0 -2.15625 0.703125 -4.140625q0.828125 -2.3125 2.53125 -4.59375l1.171875 0q-1.09375 1.890625 -1.453125 2.703125q-0.546875 1.25 -0.875 2.625q-0.390625 1.703125 -0.390625 3.421875q0 4.375 2.71875 8.75l-1.171875 0zm3.212677 -3.921875l0 -13.359375l1.78125 0l0 11.78125l6.5625 0l0 1.578125l-8.34375 0zm13.688202 -2.15625l0 -3.671875l-3.640625 0l0 -1.515625l3.640625 0l0 -3.640625l1.546875 0l0 3.640625l3.640625 0l0 1.515625l-3.640625 0l0 3.671875l-1.546875 0zm15.6137085 0.578125l0 1.578125l-8.828125 0q-0.015625 -0.59375 0.1875 -1.140625q0.34375 -0.90625 1.078125 -1.78125q0.75 -0.875 2.15625 -2.015625q2.171875 -1.78125 2.9375 -2.828125q0.765625 -1.046875 0.765625 -1.96875q0 -0.984375 -0.703125 -1.640625q-0.6875 -0.671875 -1.8125 -0.671875q-1.1875 0 -1.90625 0.71875q-0.703125 0.703125 -0.703125 1.953125l-1.6875 -0.171875q0.171875 -1.890625 1.296875 -2.875q1.140625 -0.984375 3.03125 -0.984375q1.921875 0 3.046875 1.0625q1.125 1.0625 1.125 2.640625q0 0.796875 -0.328125 1.578125q-0.328125 0.78125 -1.09375 1.640625q-0.75 0.84375 -2.53125 2.34375q-1.46875 1.234375 -1.890625 1.6875q-0.421875 0.4375 -0.6875 0.875l6.546875 0zm4.0007324 1.578125l-2.96875 -9.671875l1.703125 0l1.53125 5.578125l0.578125 2.078125q0.046875 -0.15625 0.5 -2.0l1.546875 -5.65625l1.6875 0l1.4375 5.609375l0.484375 1.84375l0.5625 -1.859375l1.65625 -5.59375l1.59375 0l-3.03125 9.671875l-1.703125 0l-1.53125 -5.796875l-0.375 -1.640625l-1.953125 7.4375l-1.71875 0zm12.769806 3.921875l-1.1875 0q2.734375 -4.375 2.734375 -8.75q0 -1.71875 -0.390625 -3.390625q-0.3125 -1.375 -0.875 -2.625q-0.359375 -0.828125 -1.46875 -2.734375l1.1875 0q1.703125 2.28125 2.53125 4.59375q0.6875 1.984375 0.6875 4.140625q0 2.46875 -0.9375 4.765625q-0.9375 2.296875 -2.28125 4.0zm9.224121 -3.921875l3.53125 -5.03125l-3.265625 -4.640625l2.046875 0l1.484375 2.265625q0.421875 0.640625 0.671875 1.078125q0.40625 -0.59375 0.734375 -1.0625l1.640625 -2.28125l1.953125 0l-3.34375 4.546875l3.59375 5.125l-2.015625 0l-1.984375 -3.0l-0.515625 -0.8125l-2.546875 3.8125l-1.984375 0zm18.730164 3.921875q-1.359375 -1.703125 -2.296875 -4.0q-0.9375 -2.296875 -0.9375 -4.765625q0 -2.15625 0.703125 -4.140625q0.828125 -2.3125 2.53125 -4.59375l1.171875 0q-1.09375 1.890625 -1.453125 2.703125q-0.546875 1.25 -0.875 2.625q-0.390625 1.703125 -0.390625 3.421875q0 4.375 2.71875 8.75l-1.171875 0zm7.884552 -3.921875l0 -3.203125l-5.796875 0l0 -1.5l6.09375 -8.65625l1.34375 0l0 8.65625l1.796875 0l0 1.5l-1.796875 0l0 3.203125l-1.640625 0zm0 -4.703125l0 -6.015625l-4.1875 6.015625l4.1875 0zm9.016357 2.546875l0 -3.671875l-3.640625 0l0 -1.515625l3.640625 0l0 -3.640625l1.546875 0l0 3.640625l3.640625 0l0 1.515625l-3.640625 0l0 3.671875l-1.546875 0zm7.4887085 -11.421875l11.265625 0l0 1.484375l-9.0 0l5.53125 7.0625l-5.90625 7.484375l9.46875 0l0 1.46875l-11.515625 0l0 -1.703125l5.65625 -7.171875l-5.5 -7.03125l0 -1.59375z" fill-rule="nonzero"/><path fill="#000000" d="m519.6882 412.95676l0 -6.453125l0.984375 0l0 0.921875q0.71875 -1.0625 2.0625 -1.0625q0.578125 0 1.0625 0.21875q0.5 0.203125 0.734375 0.546875q0.25 0.328125 0.34375 0.796875q0.0625 0.3125 0.0625 1.0625l0 3.96875l-1.09375 0l0 -3.921875q0 -0.671875 -0.125 -1.0q-0.125 -0.328125 -0.453125 -0.515625q-0.328125 -0.203125 -0.765625 -0.203125q-0.703125 0 -1.21875 0.4375q-0.5 0.4375 -0.5 1.6875l0 3.515625l-1.09375 0z" fill-rule="nonzero"/><path fill="#000000" d="m526.62085 419.31613l0 -1.265625l1.09375 0l0 1.265625l-1.09375 0zm0 7.640625l0 -6.453125l1.09375 0l0 6.453125l-1.09375 0zm8.513123 -5.234375l-5.890625 0l0 -1.015625l5.890625 0l0 1.015625zm0 2.703125l-5.890625 0l0 -1.015625l5.890625 0l0 1.015625zm5.3256836 2.53125l-1.09375 0l0 -6.96875q-0.40625 0.375 -1.046875 0.75q-0.640625 0.375 -1.140625 0.578125l0 -1.0625q0.90625 -0.4375 1.59375 -1.046875q0.6875 -0.609375 0.96875 -1.1875l0.71875 0l0 8.9375z" fill-rule="nonzero"/><path fill="#000000" d="m543.97046 419.95676l0 -13.359375l1.640625 0l0 7.625l3.890625 -3.9375l2.109375 0l-3.6875 3.59375l4.0625 6.078125l-2.015625 0l-3.203125 -4.953125l-1.15625 1.125l0 3.828125l-1.640625 0z" fill-rule="nonzero"/><path fill="#000000" d="m552.8767 426.95676l0 -6.453125l0.984375 0l0 0.921875q0.71875 -1.0625 2.0625 -1.0625q0.578125 0 1.0625 0.21875q0.5 0.203125 0.734375 0.546875q0.25 0.328125 0.34375 0.796875q0.0625 0.3125 0.0625 1.0625l0 3.96875l-1.09375 0l0 -3.921875q0 -0.671875 -0.125 -1.0q-0.125 -0.328125 -0.453125 -0.515625q-0.328125 -0.203125 -0.765625 -0.203125q-0.703125 0 -1.21875 0.4375q-0.5 0.4375 -0.5 1.6875l0 3.515625l-1.09375 0z" fill-rule="nonzero"/><path fill="#000000" d="m561.29376 423.87863l-1.1875 0q2.734375 -4.375 2.734375 -8.75q0 -1.71875 -0.390625 -3.390625q-0.3125 -1.375 -0.875 -2.625q-0.359375 -0.828125 -1.46875 -2.734375l1.1875 0q1.703125 2.28125 2.53125 4.59375q0.6875 1.984375 0.6875 4.140625q0 2.46875 -0.9375 4.765625q-0.9375 2.296875 -2.28125 4.0z" fill-rule="nonzero"/><path fill="#000000" fill-opacity="0.0" d="m115.33465 214.05774l68.88189 0l0 105.95276l-68.88189 0z" fill-rule="evenodd"/><path fill="#000000" d="m134.13106 269.13773l0 -4.8125l4.8125 0l0 4.8125l-4.8125 0zm13.3359375 0l0 -4.8125l4.8125 0l0 4.8125l-4.8125 0zm13.3359375 0l0 -4.8125l4.8125 0l0 4.8125l-4.8125 0z" fill-rule="nonzero"/><path fill="#000000" fill-opacity="0.0" d="m61.183727 267.03412l54.141735 0" fill-rule="evenodd"/><path stroke="#595959" stroke-width="1.0" stroke-linejoin="round" stroke-linecap="butt" d="m61.183727 267.03412l48.141735 0" fill-rule="evenodd"/><path fill="#595959" stroke="#595959" stroke-width="1.0" stroke-linecap="butt" d="m109.32546 268.68585l4.5380936 -1.6517334l-4.5380936 -1.6517334z" fill-rule="evenodd"/><path fill="#000000" fill-opacity="0.0" d="m184.21654 267.03412l19.338577 0" fill-rule="evenodd"/><path stroke="#595959" stroke-width="1.0" stroke-linejoin="round" stroke-linecap="butt" d="m184.21654 267.03412l13.338577 0" fill-rule="evenodd"/><path fill="#595959" stroke="#595959" stroke-width="1.0" stroke-linecap="butt" d="m197.55511 268.68585l4.538101 -1.6517334l-4.538101 -1.6517334z" fill-rule="evenodd"/><path fill="#000000" fill-opacity="0.0" d="m203.55643 267.03412l34.110245 0" fill-rule="evenodd"/><path stroke="#595959" stroke-width="1.0" stroke-linejoin="round" stroke-linecap="butt" d="m203.55643 267.03412l28.110245 0" fill-rule="evenodd"/><path fill="#595959" stroke="#595959" stroke-width="1.0" stroke-linecap="butt" d="m231.66667 268.68585l4.538086 -1.6517334l-4.538086 -1.6517334z" fill-rule="evenodd"/><path fill="#000000" fill-opacity="0.0" d="m298.42783 267.03412l5.7637634 0" fill-rule="evenodd"/><path stroke="#595959" stroke-width="1.0" stroke-linejoin="round" stroke-linecap="butt" d="m298.42783 267.03412l5.7637634 0" fill-rule="evenodd"/><path fill="#595959" stroke="#595959" stroke-width="1.0" stroke-linecap="butt" d="m304.1916 268.68585l4.5381165 -1.6517334l-4.5381165 -1.6517334z" fill-rule="evenodd"/><path fill="#000000" fill-opacity="0.0" d="m364.9475 267.03412l0 0" fill-rule="evenodd"/><path stroke="#595959" stroke-width="1.0" stroke-linejoin="round" stroke-linecap="butt" d="m364.9475 267.03412l0 0" fill-rule="evenodd"/><path fill="#595959" stroke="#595959" stroke-width="1.0" stroke-linecap="butt" d="m364.9475 268.68585l4.538086 -1.6517334l-4.538086 -1.6517334z" fill-rule="evenodd"/><path fill="#000000" fill-opacity="0.0" d="m450.99475 267.03412l66.519714 0" fill-rule="evenodd"/><path stroke="#595959" stroke-width="1.0" stroke-linejoin="round" stroke-linecap="butt" d="m450.99475 267.03412l60.519684 0" fill-rule="evenodd"/><path fill="#595959" stroke="#595959" stroke-width="1.0" stroke-linecap="butt" d="m511.51443 268.68585l4.5381165 -1.6517334l-4.5381165 -1.6517334z" fill-rule="evenodd"/><path fill="#000000" fill-opacity="0.0" d="m446.4042 219.98425l81.88974 0l0 42.236206l-81.88974 0z" fill-rule="evenodd"/><path fill="#000000" d="m462.95108 243.35738l1.609375 0.21875q-0.265625 1.65625 -1.359375 2.609375q-1.078125 0.9375 -2.671875 0.9375q-1.984375 0 -3.1875 -1.296875q-1.203125 -1.296875 -1.203125 -3.71875q0 -1.578125 0.515625 -2.75q0.515625 -1.171875 1.578125 -1.75q1.0625 -0.59375 2.3125 -0.59375q1.578125 0 2.578125 0.796875q1.0 0.796875 1.28125 2.265625l-1.59375 0.234375q-0.234375 -0.96875 -0.8125 -1.453125q-0.578125 -0.5 -1.390625 -0.5q-1.234375 0 -2.015625 0.890625q-0.78125 0.890625 -0.78125 2.8125q0 1.953125 0.75 2.84375q0.75 0.875 1.953125 0.875q0.96875 0 1.609375 -0.59375q0.65625 -0.59375 0.828125 -1.828125zm2.40625 -1.296875q0 -2.6875 1.484375 -3.96875q1.25 -1.078125 3.046875 -1.078125q2.0 0 3.265625 1.3125q1.265625 1.296875 1.265625 3.609375q0 1.859375 -0.5625 2.9375q-0.5625 1.0625 -1.640625 1.65625q-1.0625 0.59375 -2.328125 0.59375q-2.03125 0 -3.28125 -1.296875q-1.25 -1.3125 -1.25 -3.765625zm1.6875 0q0 1.859375 0.796875 2.796875q0.8125 0.921875 2.046875 0.921875q1.21875 0 2.03125 -0.921875q0.8125 -0.9375 0.8125 -2.84375q0 -1.796875 -0.8125 -2.71875q-0.8125 -0.921875 -2.03125 -0.921875q-1.234375 0 -2.046875 0.921875q-0.796875 0.90625 -0.796875 2.765625zm9.297577 4.84375l0 -9.671875l1.46875 0l0 1.375q1.0625 -1.59375 3.078125 -1.59375q0.875 0 1.609375 0.3125q0.734375 0.3125 1.09375 0.828125q0.375 0.5 0.515625 1.203125q0.09375 0.453125 0.09375 1.59375l0 5.953125l-1.640625 0l0 -5.890625q0 -1.0 -0.203125 -1.484375q-0.1875 -0.5 -0.671875 -0.796875q-0.484375 -0.296875 -1.140625 -0.296875q-1.046875 0 -1.8125 0.671875q-0.75 0.65625 -0.75 2.515625l0 5.28125l-1.640625 0zm16.688232 -3.546875l1.609375 0.21875q-0.265625 1.65625 -1.359375 2.609375q-1.078125 0.9375 -2.671875 0.9375q-1.984375 0 -3.1875 -1.296875q-1.203125 -1.296875 -1.203125 -3.71875q0 -1.578125 0.515625 -2.75q0.515625 -1.171875 1.578125 -1.75q1.0625 -0.59375 2.3125 -0.59375q1.578125 0 2.578125 0.796875q1.0 0.796875 1.28125 2.265625l-1.59375 0.234375q-0.234375 -0.96875 -0.8125 -1.453125q-0.578125 -0.5 -1.390625 -0.5q-1.234375 0 -2.015625 0.890625q-0.78125 0.890625 -0.78125 2.8125q0 1.953125 0.75 2.84375q0.75 0.875 1.953125 0.875q0.96875 0 1.609375 -0.59375q0.65625 -0.59375 0.828125 -1.828125zm9.328125 2.359375q-0.921875 0.765625 -1.765625 1.09375q-0.828125 0.3125 -1.796875 0.3125q-1.59375 0 -2.453125 -0.78125q-0.859375 -0.78125 -0.859375 -1.984375q0 -0.71875 0.328125 -1.296875q0.328125 -0.59375 0.84375 -0.9375q0.53125 -0.359375 1.1875 -0.546875q0.46875 -0.125 1.453125 -0.25q1.984375 -0.234375 2.921875 -0.5625q0.015625 -0.34375 0.015625 -0.421875q0 -1.0 -0.46875 -1.421875q-0.625 -0.546875 -1.875 -0.546875q-1.15625 0 -1.703125 0.40625q-0.546875 0.40625 -0.8125 1.421875l-1.609375 -0.21875q0.21875 -1.015625 0.71875 -1.640625q0.5 -0.640625 1.453125 -0.984375q0.953125 -0.34375 2.1875 -0.34375q1.25 0 2.015625 0.296875q0.78125 0.28125 1.140625 0.734375q0.375 0.4375 0.515625 1.109375q0.078125 0.421875 0.078125 1.515625l0 2.1875q0 2.28125 0.109375 2.890625q0.109375 0.59375 0.40625 1.15625l-1.703125 0q-0.265625 -0.515625 -0.328125 -1.1875zm-0.140625 -3.671875q-0.890625 0.375 -2.671875 0.625q-1.015625 0.140625 -1.4375 0.328125q-0.421875 0.1875 -0.65625 0.53125q-0.21875 0.34375 -0.21875 0.78125q0 0.65625 0.5 1.09375q0.5 0.4375 1.453125 0.4375q0.9375 0 1.671875 -0.40625q0.75 -0.421875 1.09375 -1.140625q0.265625 -0.5625 0.265625 -1.640625l0 -0.609375zm7.781952 3.390625l0.234375 1.453125q-0.6875 0.140625 -1.234375 0.140625q-0.890625 0 -1.390625 -0.28125q-0.484375 -0.28125 -0.6875 -0.734375q-0.203125 -0.46875 -0.203125 -1.9375l0 -5.578125l-1.203125 0l0 -1.265625l1.203125 0l0 -2.390625l1.625 -0.984375l0 3.375l1.65625 0l0 1.265625l-1.65625 0l0 5.671875q0 0.6875 0.078125 0.890625q0.09375 0.203125 0.28125 0.328125q0.203125 0.109375 0.578125 0.109375q0.265625 0 0.71875 -0.0625z" fill-rule="nonzero"/><path fill="#000000" fill-opacity="0.0" d="m237.67192 267.03412l-24.99939 0l0 53.519684l274.6687 0l0 -58.338593" fill-rule="evenodd"/><path stroke="#595959" stroke-width="1.0" stroke-linejoin="round" stroke-linecap="butt" d="m237.67192 267.03412l-24.99939 0l0 53.519684l274.6687 0l0 -54.9115" fill-rule="evenodd"/><path fill="#595959" stroke="#595959" stroke-width="1.0" stroke-linecap="butt" d="m487.34122 265.6423l1.1245728 1.1246033l-1.1245728 -3.0897827l-1.1246033 3.0897827z" fill-rule="evenodd"/><path fill="#000000" fill-opacity="0.0" d="m230.07349 112.59318l176.28348 0l0 42.236214l-176.28348 0z" fill-rule="evenodd"/><path fill="#000000" d="m240.30786 139.51317l0 -9.671875l1.46875 0l0 1.375q1.0625 -1.59375 3.078125 -1.59375q0.875 0 1.609375 0.3125q0.734375 0.3125 1.09375 0.828125q0.375 0.5 0.515625 1.203125q0.09375 0.453125 0.09375 1.59375l0 5.953125l-1.640625 0l0 -5.890625q0 -1.0 -0.203125 -1.484375q-0.1875 -0.5 -0.671875 -0.796875q-0.484375 -0.296875 -1.140625 -0.296875q-1.046875 0 -1.8125 0.671875q-0.75 0.65625 -0.75 2.515625l0 5.28125l-1.640625 0z" fill-rule="nonzero"/><path fill="#000000" d="m252.65233 131.5288l0.15625 0.96875q-0.453125 0.09375 -0.828125 0.09375q-0.59375 0 -0.921875 -0.1875q-0.328125 -0.1875 -0.46875 -0.484375q-0.125 -0.3125 -0.125 -1.296875l0 -3.7031174l-0.796875 0l0 -0.859375l0.796875 0l0 -1.59375l1.09375 -0.65625l0 2.25l1.09375 0l0 0.859375l-1.09375 0l0 3.7656174q0 0.46875 0.046875 0.609375q0.0625 0.125 0.1875 0.203125q0.140625 0.078125 0.390625 0.078125q0.171875 0 0.46875 -0.046875zm1.0648499 0.984375l0 -8.906242l1.09375 0l0 3.203125q0.765625 -0.890625 1.9375153 -0.890625q0.71875 0 1.25 0.28125q0.53125 0.28125 0.75 0.78125q0.234375 0.5 0.234375 1.4374924l0 4.09375l-1.09375 0l0 -4.09375q0 -0.8124924 -0.359375 -1.1874924q-0.359375 -0.375 -1.0 -0.375q-0.484375 0 -0.92189026 0.25q-0.421875 0.25 -0.609375 0.6875q-0.1875 0.43749237 -0.1875 1.1874924l0 3.53125l-1.09375 0z" fill-rule="nonzero"/><path fill="#000000" d="m272.50504 139.51317l0 -1.21875q-0.90625 1.4375 -2.703125 1.4375q-1.15625 0 -2.125 -0.640625q-0.96875 -0.640625 -1.5 -1.78125q-0.53125 -1.140625 -0.53125 -2.625q0 -1.453125 0.484375 -2.625q0.484375 -1.1875 1.4375 -1.8125q0.96875 -0.625 2.171875 -0.625q0.875 0 1.546875 0.375q0.6875 0.359375 1.109375 0.953125l0 -4.7968674l1.640625 0l0 13.359367l-1.53125 0zm-5.171875 -4.828125q0 1.859375 0.78125 2.78125q0.78125 0.921875 1.84375 0.921875q1.078125 0 1.828125 -0.875q0.75 -0.890625 0.75 -2.6875q0 -1.984375 -0.765625 -2.90625q-0.765625 -0.9375 -1.890625 -0.9375q-1.078125 0 -1.8125 0.890625q-0.734375 0.890625 -0.734375 2.8125zm15.906952 1.71875l1.6875 0.203125q-0.40625 1.484375 -1.484375 2.3125q-1.078125 0.8125 -2.765625 0.8125q-2.125 0 -3.375 -1.296875q-1.234375 -1.3125 -1.234375 -3.671875q0 -2.453125 1.25 -3.796875q1.265625 -1.34375 3.265625 -1.34375q1.9375 0 3.15625 1.328125q1.234375 1.3125 1.234375 3.703125q0 0.15625 0 0.4375l-7.21875 0q0.09375 1.59375 0.90625 2.453125q0.8125 0.84375 2.015625 0.84375q0.90625 0 1.546875 -0.46875q0.640625 -0.484375 1.015625 -1.515625zm-5.390625 -2.65625l5.40625 0q-0.109375 -1.21875 -0.625 -1.828125q-0.78125 -0.953125 -2.03125 -0.953125q-1.125 0 -1.90625 0.765625q-0.765625 0.75 -0.84375 2.015625zm9.141357 5.765625l0 -9.671875l1.46875 0l0 1.375q1.0625 -1.59375 3.078125 -1.59375q0.875 0 1.609375 0.3125q0.734375 0.3125 1.09375 0.828125q0.375 0.5 0.515625 1.203125q0.09375 0.453125 0.09375 1.59375l0 5.953125l-1.640625 0l0 -5.890625q0 -1.0 -0.203125 -1.484375q-0.1875 -0.5 -0.671875 -0.796875q-0.484375 -0.296875 -1.140625 -0.296875q-1.046875 0 -1.8125 0.671875q-0.75 0.65625 -0.75 2.515625l0 5.28125l-1.640625 0zm9.719452 -2.890625l1.625 -0.25q0.125 0.96875 0.75 1.5q0.625 0.515625 1.75 0.515625q1.125 0 1.671875 -0.453125q0.546875 -0.46875 0.546875 -1.09375q0 -0.546875 -0.484375 -0.875q-0.328125 -0.21875 -1.671875 -0.546875q-1.8125 -0.46875 -2.515625 -0.796875q-0.6875 -0.328125 -1.046875 -0.90625q-0.359375 -0.59375 -0.359375 -1.3125q0 -0.640625 0.296875 -1.1875q0.296875 -0.5625 0.8125 -0.921875q0.375 -0.28125 1.03125 -0.46875q0.671875 -0.203125 1.421875 -0.203125q1.140625 0 2.0 0.328125q0.859375 0.328125 1.265625 0.890625q0.421875 0.5625 0.578125 1.5l-1.609375 0.21875q-0.109375 -0.75 -0.640625 -1.171875q-0.515625 -0.421875 -1.46875 -0.421875q-1.140625 0 -1.625 0.375q-0.46875 0.375 -0.46875 0.875q0 0.3125 0.1875 0.578125q0.203125 0.265625 0.640625 0.4375q0.234375 0.09375 1.4375 0.421875q1.75 0.453125 2.4375 0.75q0.6875 0.296875 1.078125 0.859375q0.390625 0.5625 0.390625 1.40625q0 0.828125 -0.484375 1.546875q-0.46875 0.71875 -1.375 1.125q-0.90625 0.390625 -2.046875 0.390625q-1.875 0 -2.875 -0.78125q-0.984375 -0.78125 -1.25 -2.328125zm16.609375 -0.21875l1.6875 0.203125q-0.40625 1.484375 -1.484375 2.3125q-1.078125 0.8125 -2.765625 0.8125q-2.125 0 -3.375 -1.296875q-1.234375 -1.3125 -1.234375 -3.671875q0 -2.453125 1.25 -3.796875q1.265625 -1.34375 3.265625 -1.34375q1.9375 0 3.15625 1.328125q1.234375 1.3125 1.234375 3.703125q0 0.15625 0 0.4375l-7.21875 0q0.09375 1.59375 0.90625 2.453125q0.8125 0.84375 2.015625 0.84375q0.90625 0 1.546875 -0.46875q0.640625 -0.484375 1.015625 -1.515625zm-5.390625 -2.65625l5.40625 0q-0.109375 -1.21875 -0.625 -1.828125q-0.78125 -0.953125 -2.03125 -0.953125q-1.125 0 -1.90625 0.765625q-0.765625 0.75 -0.84375 2.015625zm15.824646 5.765625l-1.515625 0l0 -13.359367l1.640625 0l0 4.7656174q1.046875 -1.296875 2.65625 -1.296875q0.890625 0 1.6875 0.359375q0.796875 0.359375 1.3125 1.015625q0.515625 0.640625 0.796875 1.5625q0.296875 0.921875 0.296875 1.96875q0 2.484375 -1.234375 3.84375q-1.21875 1.359375 -2.953125 1.359375q-1.703125 0 -2.6875 -1.4375l0 1.21875zm-0.015625 -4.90625q0 1.734375 0.484375 2.515625q0.765625 1.265625 2.09375 1.265625q1.078125 0 1.859375 -0.9375q0.78125 -0.9375 0.78125 -2.78125q0 -1.890625 -0.75 -2.796875q-0.75 -0.90625 -1.828125 -0.90625q-1.0625 0 -1.859375 0.9375q-0.78125 0.9375 -0.78125 2.703125zm8.844482 4.90625l0 -13.359367l1.640625 0l0 13.359367l-1.640625 0zm3.582306 -4.84375q0 -2.6875 1.484375 -3.96875q1.25 -1.078125 3.046875 -1.078125q2.0 0 3.265625 1.3125q1.265625 1.296875 1.265625 3.609375q0 1.859375 -0.5625 2.9375q-0.5625 1.0625 -1.640625 1.65625q-1.0625 0.59375 -2.328125 0.59375q-2.03125 0 -3.28125 -1.296875q-1.25 -1.3125 -1.25 -3.765625zm1.6875 0q0 1.859375 0.796875 2.796875q0.8125 0.921875 2.046875 0.921875q1.21875 0 2.03125 -0.921875q0.8125 -0.9375 0.8125 -2.84375q0 -1.796875 -0.8125 -2.71875q-0.8125 -0.921875 -2.03125 -0.921875q-1.234375 0 -2.046875 0.921875q-0.796875 0.90625 -0.796875 2.765625zm15.610107 1.296875l1.609375 0.21875q-0.265625 1.65625 -1.359375 2.609375q-1.078125 0.9375 -2.671875 0.9375q-1.984375 0 -3.1875 -1.296875q-1.203125 -1.296875 -1.203125 -3.71875q0 -1.578125 0.515625 -2.75q0.515625 -1.171875 1.578125 -1.75q1.0625 -0.59375 2.3125 -0.59375q1.578125 0 2.578125 0.796875q1.0 0.796875 1.28125 2.265625l-1.59375 0.234375q-0.234375 -0.96875 -0.8125 -1.453125q-0.578125 -0.5 -1.390625 -0.5q-1.234375 0 -2.015625 0.890625q-0.78125 0.890625 -0.78125 2.8125q0 1.953125 0.75 2.84375q0.75 0.875 1.953125 0.875q0.96875 0 1.609375 -0.59375q0.65625 -0.59375 0.828125 -1.828125zm3.015625 3.546875l0 -13.359367l1.640625 0l0 7.6249924l3.890625 -3.9375l2.109375 0l-3.6875 3.59375l4.0625 6.078125l-2.015625 0l-3.203125 -4.953125l-1.15625 1.125l0 3.828125l-1.640625 0z" fill-rule="nonzero"/><path fill="#000000" fill-opacity="0.0" d="m566.7113 267.03412l24.251953 0" fill-rule="evenodd"/><path stroke="#595959" stroke-width="1.0" stroke-linejoin="round" stroke-linecap="butt" d="m566.7113 267.03412l18.251953 0" fill-rule="evenodd"/><path fill="#595959" stroke="#595959" stroke-width="1.0" stroke-linecap="butt" d="m584.96326 268.68585l4.538086 -1.6517334l-4.538086 -1.6517334z" fill-rule="evenodd"/><path fill="#000000" fill-opacity="0.0" d="m590.958 267.03412l27.181091 0" fill-rule="evenodd"/><path stroke="#595959" stroke-width="1.0" stroke-linejoin="round" stroke-linecap="butt" d="m590.958 267.03412l21.181091 0" fill-rule="evenodd"/><path fill="#595959" stroke="#595959" stroke-width="1.0" stroke-linecap="butt" d="m612.1391 268.68585l4.538086 -1.6517334l-4.538086 -1.6517334z" fill-rule="evenodd"/><path fill="#eeeeee" d="m714.21783 182.97113l126.677185 0l0 168.12598l-126.677185 0z" fill-rule="evenodd"/><path stroke="#595959" stroke-width="1.0" stroke-linejoin="round" stroke-linecap="butt" d="m714.21783 182.97113l126.677185 0l0 168.12598l-126.677185 0z" fill-rule="evenodd"/><path fill="#eeeeee" d="m936.97375 182.97113l10.740173 0l0 168.12598l-10.740173 0z" fill-rule="evenodd"/><path stroke="#595959" stroke-width="1.0" stroke-linejoin="round" stroke-linecap="butt" d="m936.97375 182.97113l10.740173 0l0 168.12598l-10.740173 0z" fill-rule="evenodd"/><path fill="#000000" fill-opacity="0.0" d="m687.0315 267.03412l27.181091 0" fill-rule="evenodd"/><path stroke="#595959" stroke-width="1.0" stroke-linejoin="round" stroke-linecap="butt" d="m687.0315 267.03412l21.181091 0" fill-rule="evenodd"/><path fill="#595959" stroke="#595959" stroke-width="1.0" stroke-linecap="butt" d="m708.2126 268.68585l4.538086 -1.6517334l-4.538086 -1.6517334z" fill-rule="evenodd"/><path fill="#000000" fill-opacity="0.0" d="m661.1155 229.62204l68.8819 0l0 22.960632l-68.8819 0z" fill-rule="evenodd"/><path fill="#000000" d="m677.66235 252.99516l1.609375 0.21875q-0.265625 1.65625 -1.359375 2.609375q-1.078125 0.93751526 -2.671875 0.93751526q-1.984375 0 -3.1875 -1.2968903q-1.203125 -1.296875 -1.203125 -3.71875q0 -1.578125 0.515625 -2.75q0.515625 -1.171875 1.578125 -1.75q1.0625 -0.59375 2.3125 -0.59375q1.578125 0 2.578125 0.796875q1.0 0.796875 1.28125 2.265625l-1.59375 0.234375q-0.234375 -0.96875 -0.8125 -1.453125q-0.578125 -0.5 -1.390625 -0.5q-1.234375 0 -2.015625 0.890625q-0.78125 0.890625 -0.78125 2.8125q0 1.953125 0.75 2.84375q0.75 0.875 1.953125 0.875q0.96875 0 1.609375 -0.59375q0.65625 -0.59375 0.828125 -1.828125zm3.0 3.5468903l0 -9.67189l1.46875 0l0 1.46875q0.5625 -1.03125 1.03125 -1.359375q0.484375 -0.328125 1.0625 -0.328125q0.828125 0 1.6875 0.53125l-0.5625 1.515625q-0.609375 -0.359375 -1.203125 -0.359375q-0.546875 0 -0.96875 0.328125q-0.421875 0.328125 -0.609375 0.890625q-0.28125 0.875 -0.28125 1.921875l0 5.0625153l-1.625 0zm5.6189575 -4.8437653q0 -2.6875 1.484375 -3.96875q1.25 -1.078125 3.046875 -1.078125q2.0 0 3.265625 1.3125q1.265625 1.296875 1.265625 3.609375q0 1.859375 -0.5625 2.9375q-0.5625 1.0625 -1.640625 1.6562653q-1.0625 0.59375 -2.328125 0.59375q-2.03125 0 -3.28125 -1.2968903q-1.25 -1.3125 -1.25 -3.765625zm1.6875 0q0 1.859375 0.796875 2.796875q0.8125 0.921875 2.046875 0.921875q1.21875 0 2.03125 -0.921875q0.8125 -0.9375 0.8125 -2.84375q0 -1.796875 -0.8125 -2.71875q-0.8125 -0.921875 -2.03125 -0.921875q-1.234375 0 -2.046875 0.921875q-0.796875 0.90625 -0.796875 2.765625zm9.297546 8.54689l0 -13.375015l1.484375 0l0 1.25q0.53125 -0.734375 1.1875 -1.09375q0.671875 -0.375 1.625 -0.375q1.234375 0 2.171875 0.640625q0.953125 0.625 1.4375 1.796875q0.484375 1.15625 0.484375 2.546875q0 1.484375 -0.53125 2.671875q-0.53125 1.1875 -1.546875 1.8281403q-1.015625 0.625 -2.140625 0.625q-0.8125 0 -1.46875 -0.34375q-0.65625 -0.34375 -1.0625 -0.87501526l0 4.7031403l-1.640625 0zm1.484375 -8.48439q0 1.859375 0.75 2.765625q0.765625 0.890625 1.828125 0.890625q1.09375 0 1.875 -0.921875q0.78125 -0.9375 0.78125 -2.875q0 -1.84375 -0.765625 -2.765625q-0.75 -0.921875 -1.8125 -0.921875q-1.046875 0 -1.859375 0.984375q-0.796875 0.96875 -0.796875 2.84375z" fill-rule="nonzero"/><path fill="#000000" fill-opacity="0.0" d="m703.1312 363.85303l137.7638 0l0 57.039368l-137.7638 0z" fill-rule="evenodd"/><path fill="#000000" d="m713.4906 390.773l0 -13.359375l1.78125 0l0 11.78125l6.5625 0l0 1.578125l-8.34375 0zm13.647583 0l3.53125 -5.03125l-3.265625 -4.640625l2.046875 0l1.484375 2.265625q0.421875 0.640625 0.671875 1.078125q0.40625 -0.59375 0.734375 -1.0625l1.640625 -2.28125l1.953125 0l-3.34375 4.546875l3.59375 5.125l-2.015625 0l-1.984375 -3.0l-0.515625 -0.8125l-2.546875 3.8125l-1.984375 0zm18.730164 3.921875q-1.359375 -1.703125 -2.296875 -4.0q-0.9375 -2.296875 -0.9375 -4.765625q0 -2.15625 0.703125 -4.140625q0.828125 -2.3125 2.53125 -4.59375l1.171875 0q-1.09375 1.890625 -1.453125 2.703125q-0.546875 1.25 -0.875 2.625q-0.390625 1.703125 -0.390625 3.421875q0 4.375 2.71875 8.75l-1.171875 0zm7.8845825 -3.921875l0 -3.203125l-5.796875 0l0 -1.5l6.09375 -8.65625l1.34375 0l0 8.65625l1.796875 0l0 1.5l-1.796875 0l0 3.203125l-1.640625 0zm0 -4.703125l0 -6.015625l-4.1875 6.015625l4.1875 0zm9.016296 2.546875l0 -3.671875l-3.640625 0l0 -1.515625l3.640625 0l0 -3.640625l1.546875 0l0 3.640625l3.640625 0l0 1.515625l-3.640625 0l0 3.671875l-1.546875 0zm7.4887085 -11.421875l11.265625 0l0 1.484375l-9.0 0l5.53125 7.0625l-5.90625 7.484375l9.46875 0l0 1.46875l-11.515625 0l0 -1.703125l5.65625 -7.171875l-5.5 -7.03125l0 -1.59375z" fill-rule="nonzero"/><path fill="#000000" d="m783.2453 383.773l0 -8.90625l1.203125 0l4.671875 7.0l0 -7.0l1.140625 0l0 8.90625l-1.21875 0l-4.671875 -7.0l0 7.0l-1.125 0z" fill-rule="nonzero"/><path fill="#000000" d="m792.1022 390.1324l0 -1.265625l1.09375 0l0 1.265625l-1.09375 0zm0 7.640625l0 -6.453125l1.09375 0l0 6.453125l-1.09375 0zm8.513123 -5.234375l-5.890625 0l0 -1.015625l5.890625 0l0 1.015625zm0 2.703125l-5.890625 0l0 -1.015625l5.890625 0l0 1.015625zm5.3256836 2.53125l-1.09375 0l0 -6.96875q-0.40625 0.375 -1.046875 0.75q-0.640625 0.375 -1.140625 0.578125l0 -1.0625q0.90625 -0.4375 1.59375 -1.046875q0.6875 -0.609375 0.96875 -1.1875l0.71875 0l0 8.9375z" fill-rule="nonzero"/><path fill="#000000" d="m809.4518 390.773l0 -13.359375l1.640625 0l0 7.625l3.890625 -3.9375l2.109375 0l-3.6875 3.59375l4.0625 6.078125l-2.015625 0l-3.203125 -4.953125l-1.15625 1.125l0 3.828125l-1.640625 0z" fill-rule="nonzero"/><path fill="#000000" d="m818.35803 397.773l0 -6.453125l0.984375 0l0 0.921875q0.71875 -1.0625 2.0625 -1.0625q0.578125 0 1.0625 0.21875q0.5 0.203125 0.734375 0.546875q0.25 0.328125 0.34375 0.796875q0.0625 0.3125 0.0625 1.0625l0 3.96875l-1.09375 0l0 -3.921875q0 -0.671875 -0.125 -1.0q-0.125 -0.328125 -0.453125 -0.515625q-0.328125 -0.203125 -0.765625 -0.203125q-0.703125 0 -1.21875 0.4375q-0.5 0.4375 -0.5 1.6875l0 3.515625l-1.09375 0z" fill-rule="nonzero"/><path fill="#000000" d="m826.7751 394.6949l-1.1875 0q2.734375 -4.375 2.734375 -8.75q0 -1.71875 -0.390625 -3.390625q-0.3125 -1.375 -0.875 -2.625q-0.359375 -0.828125 -1.46875 -2.734375l1.1875 0q1.703125 2.28125 2.53125 4.59375q0.6875 1.984375 0.6875 4.140625q0 2.46875 -0.9375 4.765625q-0.9375 2.296875 -2.28125 4.0z" fill-rule="nonzero"/><path fill="#000000" fill-opacity="0.0" d="m909.084 363.85303l66.519714 0l0 57.039368l-66.519714 0z" fill-rule="evenodd"/><path fill="#000000" d="m919.44336 390.773l0 -13.359375l1.78125 0l0 11.78125l6.5625 0l0 1.578125l-8.34375 0zm13.647583 0l3.53125 -5.03125l-3.265625 -4.640625l2.046875 0l1.484375 2.265625q0.421875 0.640625 0.671875 1.078125q0.40625 -0.59375 0.734375 -1.0625l1.640625 -2.28125l1.953125 0l-3.34375 4.546875l3.59375 5.125l-2.015625 0l-1.984375 -3.0l-0.515625 -0.8125l-2.546875 3.8125l-1.984375 0zm21.323914 0l-1.640625 0l0 -10.453125q-0.59375 0.5625 -1.5625 1.140625q-0.953125 0.5625 -1.71875 0.84375l0 -1.59375q1.375 -0.640625 2.40625 -1.5625q1.03125 -0.921875 1.453125 -1.78125l1.0625 0l0 13.40625z" fill-rule="nonzero"/><path fill="#000000" fill-opacity="0.0" d="m840.895 197.21785l117.22833 0l0 58.330704l-117.22833 0z" fill-rule="evenodd"/><path fill="#000000" d="m851.2544 224.13785l0 -13.359375l1.78125 0l0 11.78125l6.5625 0l0 1.578125l-8.34375 0zm10.250732 -11.46875l0 -1.890625l1.640625 0l0 1.890625l-1.640625 0zm0 11.46875l0 -9.671875l1.640625 0l0 9.671875l-1.640625 0zm4.1447754 0l0 -9.671875l1.46875 0l0 1.375q1.0625 -1.59375 3.078125 -1.59375q0.875 0 1.609375 0.3125q0.734375 0.3125 1.09375 0.828125q0.375 0.5 0.515625 1.203125q0.09375 0.453125 0.09375 1.59375l0 5.953125l-1.640625 0l0 -5.890625q0 -1.0 -0.203125 -1.484375q-0.1875 -0.5 -0.671875 -0.796875q-0.484375 -0.296875 -1.140625 -0.296875q-1.046875 0 -1.8125 0.671875q-0.75 0.65625 -0.75 2.515625l0 5.28125l-1.640625 0zm17.000732 -3.109375l1.6875 0.203125q-0.40625 1.484375 -1.484375 2.3125q-1.078125 0.8125 -2.765625 0.8125q-2.125 0 -3.375 -1.296875q-1.234375 -1.3125 -1.234375 -3.671875q0 -2.453125 1.25 -3.796875q1.265625 -1.34375 3.265625 -1.34375q1.9375 0 3.15625 1.328125q1.234375 1.3125 1.234375 3.703125q0 0.15625 0 0.4375l-7.21875 0q0.09375 1.59375 0.90625 2.453125q0.8125 0.84375 2.015625 0.84375q0.90625 0 1.546875 -0.46875q0.640625 -0.484375 1.015625 -1.515625zm-5.390625 -2.65625l5.40625 0q-0.109375 -1.21875 -0.625 -1.828125q-0.78125 -0.953125 -2.03125 -0.953125q-1.125 0 -1.90625 0.765625q-0.765625 0.75 -0.84375 2.015625zm15.453857 4.578125q-0.921875 0.765625 -1.765625 1.09375q-0.828125 0.3125 -1.796875 0.3125q-1.59375 0 -2.453125 -0.78125q-0.859375 -0.78125 -0.859375 -1.984375q0 -0.71875 0.328125 -1.296875q0.328125 -0.59375 0.84375 -0.9375q0.53125 -0.359375 1.1875 -0.546875q0.46875 -0.125 1.453125 -0.25q1.984375 -0.234375 2.921875 -0.5625q0.015625 -0.34375 0.015625 -0.421875q0 -1.0 -0.46875 -1.421875q-0.625 -0.546875 -1.875 -0.546875q-1.15625 0 -1.703125 0.40625q-0.546875 0.40625 -0.8125 1.421875l-1.609375 -0.21875q0.21875 -1.015625 0.71875 -1.640625q0.5 -0.640625 1.453125 -0.984375q0.953125 -0.34375 2.1875 -0.34375q1.25 0 2.015625 0.296875q0.78125 0.28125 1.140625 0.734375q0.375 0.4375 0.515625 1.109375q0.078125 0.421875 0.078125 1.515625l0 2.1875q0 2.28125 0.109375 2.890625q0.109375 0.59375 0.40625 1.15625l-1.703125 0q-0.265625 -0.515625 -0.328125 -1.1875zm-0.140625 -3.671875q-0.890625 0.375 -2.671875 0.625q-1.015625 0.140625 -1.4375 0.328125q-0.421875 0.1875 -0.65625 0.53125q-0.21875 0.34375 -0.21875 0.78125q0 0.65625 0.5 1.09375q0.5 0.4375 1.453125 0.4375q0.9375 0 1.671875 -0.40625q0.75 -0.421875 1.09375 -1.140625q0.265625 -0.5625 0.265625 -1.640625l0 -0.609375zm4.1882324 4.859375l0 -9.671875l1.46875 0l0 1.46875q0.5625 -1.03125 1.03125 -1.359375q0.484375 -0.328125 1.0625 -0.328125q0.828125 0 1.6875 0.53125l-0.5625 1.515625q-0.609375 -0.359375 -1.203125 -0.359375q-0.546875 0 -0.96875 0.328125q-0.421875 0.328125 -0.609375 0.890625q-0.28125 0.875 -0.28125 1.921875l0 5.0625l-1.625 0zm14.84906 -2.15625l0 -3.671875l-3.640625 0l0 -1.515625l3.640625 0l0 -3.640625l1.546875 0l0 3.640625l3.640625 0l0 1.515625l-3.640625 0l0 3.671875l-1.546875 0z" fill-rule="nonzero"/><path fill="#000000" d="m850.47314 243.24722l1.625 -0.25q0.125 0.96875 0.75 1.5q0.625 0.515625 1.75 0.515625q1.125 0 1.671875 -0.453125q0.546875 -0.46875 0.546875 -1.09375q0 -0.546875 -0.484375 -0.875q-0.328125 -0.21875 -1.671875 -0.546875q-1.8125 -0.46875 -2.515625 -0.796875q-0.6875 -0.328125 -1.046875 -0.90625q-0.359375 -0.59375 -0.359375 -1.3125q0 -0.640625 0.296875 -1.1875q0.296875 -0.5625 0.8125 -0.921875q0.375 -0.28125 1.03125 -0.46875q0.671875 -0.203125 1.421875 -0.203125q1.140625 0 2.0 0.328125q0.859375 0.328125 1.265625 0.890625q0.421875 0.5625 0.578125 1.5l-1.609375 0.21875q-0.109375 -0.75 -0.640625 -1.171875q-0.515625 -0.421875 -1.46875 -0.421875q-1.140625 0 -1.625 0.375q-0.46875 0.375 -0.46875 0.875q0 0.3125 0.1875 0.578125q0.203125 0.265625 0.640625 0.4375q0.234375 0.09375 1.4375 0.421875q1.75 0.453125 2.4375 0.75q0.6875 0.296875 1.078125 0.859375q0.390625 0.5625 0.390625 1.40625q0 0.828125 -0.484375 1.546875q-0.46875 0.71875 -1.375 1.125q-0.90625 0.390625 -2.046875 0.390625q-1.875 0 -2.875 -0.78125q-0.984375 -0.78125 -1.25 -2.328125zm9.984375 -8.578125l0 -1.890625l1.640625 0l0 1.890625l-1.640625 0zm0 11.46875l0 -9.671875l1.640625 0l0 9.671875l-1.640625 0zm3.8323364 0.796875l1.59375 0.234375q0.109375 0.75 0.5625 1.078125q0.609375 0.453125 1.671875 0.453125q1.140625 0 1.75 -0.453125q0.625 -0.453125 0.84375 -1.265625q0.125 -0.5 0.109375 -2.109375q-1.0625 1.265625 -2.671875 1.265625q-2.0 0 -3.09375 -1.4375q-1.09375 -1.4375 -1.09375 -3.453125q0 -1.390625 0.5 -2.5625q0.515625 -1.171875 1.453125 -1.796875q0.953125 -0.640625 2.25 -0.640625q1.703125 0 2.8125 1.375l0 -1.15625l1.515625 0l0 8.359375q0 2.265625 -0.46875 3.203125q-0.453125 0.9375 -1.453125 1.484375q-0.984375 0.546875 -2.453125 0.546875q-1.71875 0 -2.796875 -0.78125q-1.0625 -0.765625 -1.03125 -2.34375zm1.359375 -5.8125q0 1.90625 0.75 2.78125q0.765625 0.875 1.90625 0.875q1.125 0 1.890625 -0.859375q0.765625 -0.875 0.765625 -2.734375q0 -1.78125 -0.796875 -2.671875q-0.78125 -0.90625 -1.890625 -0.90625q-1.09375 0 -1.859375 0.890625q-0.765625 0.875 -0.765625 2.625zm9.328796 5.015625l0 -9.671875l1.46875 0l0 1.359375q0.453125 -0.71875 1.203125 -1.140625q0.765625 -0.4375 1.71875 -0.4375q1.078125 0 1.765625 0.453125q0.6875 0.4375 0.96875 1.234375q1.15625 -1.6875 2.984375 -1.6875q1.453125 0 2.21875 0.796875q0.78125 0.796875 0.78125 2.453125l0 6.640625l-1.640625 0l0 -6.09375q0 -0.984375 -0.15625 -1.40625q-0.15625 -0.4375 -0.578125 -0.703125q-0.421875 -0.265625 -0.984375 -0.265625q-1.015625 0 -1.6875 0.6875q-0.671875 0.671875 -0.671875 2.15625l0 5.625l-1.640625 0l0 -6.28125q0 -1.09375 -0.40625 -1.640625q-0.40625 -0.546875 -1.3125 -0.546875q-0.6875 0 -1.28125 0.359375q-0.59375 0.359375 -0.859375 1.0625q-0.25 0.703125 -0.25 2.03125l0 5.015625l-1.640625 0zm14.9314575 -4.84375q0 -2.6875 1.484375 -3.96875q1.25 -1.078125 3.046875 -1.078125q2.0 0 3.265625 1.3125q1.265625 1.296875 1.265625 3.609375q0 1.859375 -0.5625 2.9375q-0.5625 1.0625 -1.640625 1.65625q-1.0625 0.59375 -2.328125 0.59375q-2.03125 0 -3.28125 -1.296875q-1.25 -1.3125 -1.25 -3.765625zm1.6875 0q0 1.859375 0.796875 2.796875q0.8125 0.921875 2.046875 0.921875q1.21875 0 2.03125 -0.921875q0.8125 -0.9375 0.8125 -2.84375q0 -1.796875 -0.8125 -2.71875q-0.8125 -0.921875 -2.03125 -0.921875q-1.234375 0 -2.046875 0.921875q-0.796875 0.90625 -0.796875 2.765625zm9.297607 -6.625l0 -1.890625l1.640625 0l0 1.890625l-1.640625 0zm0 11.46875l0 -9.671875l1.640625 0l0 9.671875l-1.640625 0zm10.4104 0l0 -1.21875q-0.90625 1.4375 -2.703125 1.4375q-1.15625 0 -2.125 -0.640625q-0.96875 -0.640625 -1.5 -1.78125q-0.53125 -1.140625 -0.53125 -2.625q0 -1.453125 0.484375 -2.625q0.484375 -1.1875 1.4375 -1.8125q0.96875 -0.625 2.171875 -0.625q0.875 0 1.546875 0.375q0.6875 0.359375 1.109375 0.953125l0 -4.796875l1.640625 0l0 13.359375l-1.53125 0zm-5.171875 -4.828125q0 1.859375 0.78125 2.78125q0.78125 0.921875 1.84375 0.921875q1.078125 0 1.828125 -0.875q0.75 -0.890625 0.75 -2.6875q0 -1.984375 -0.765625 -2.90625q-0.765625 -0.9375 -1.890625 -0.9375q-1.078125 0 -1.8125 0.890625q-0.734375 0.890625 -0.734375 2.8125z" fill-rule="nonzero"/><path fill="#000000" fill-opacity="0.0" d="m840.91077 267.03412l96.06299 0" fill-rule="evenodd"/><path stroke="#595959" stroke-width="1.0" stroke-linejoin="round" stroke-linecap="butt" d="m840.91077 267.03412l90.06299 0" fill-rule="evenodd"/><path fill="#595959" stroke="#595959" stroke-width="1.0" stroke-linecap="butt" d="m930.97375 268.68585l4.538086 -1.6517334l-4.538086 -1.6517334z" fill-rule="evenodd"/></g></svg>